# xmcd
#
# Track frame offsets: 
#        150
#        31226
#        64634
#        93935
#        108065
#        132510
#        156654
#        181128
#        212471
#        247694
#
# Disc length: 3637 seconds
#
# Revision: 0
# Processed by: cddbd v1.5.2PL0 Copyright (c) Steve Scherf et al.
# Submitted via: ExactAudioCopy v0.95b3
#
DISCID=780e330a
DTITLE=Traffic  - Paris Theatre London, England BBC In Concert 04-30-1
DTITLE=970 (FLAC)
DYEAR=1900
DGENRE=
TTITLE0=Who Knows What Tomorrow May Bring
TTITLE1=Every Mothers Son
TTITLE2=No Time To Live
TTITLE3=Medicated Goo
TTITLE4=John Barleycorn
TTITLE5=Pearly Queen
TTITLE6=Stranger To Himself
TTITLE7=Empty Pages
TTITLE8=Glad
TTITLE9=Freedom Rider
EXTD=
EXTT0=
EXTT1=
EXTT2=
EXTT3=
EXTT4=
EXTT5=
EXTT6=
EXTT7=
EXTT8=
EXTT9=
PLAYORDER=
